<svg width="40" height="40" viewBox="0 0 40 40" fill="none" xmlns="http://www.w3.org/2000/svg">
<path d="M18.2 32.9165C17.7167 32.9165 17.25 32.8498 16.8666 32.6998C11.1666 30.7498 2.08331 23.7832 2.08331 13.4832C2.08331 8.19982 6.34997 3.9165 11.6 3.9165C14.1166 3.9165 16.4666 4.88315 18.2166 6.59981C19.9833 4.88315 22.3166 3.9165 24.8333 3.9165C30.0833 3.9165 34.35 8.19982 34.35 13.4832C34.35 14.1998 34.3 14.9332 34.2 15.6832C34.15 16.0665 33.9166 16.4165 33.5833 16.6165C33.25 16.8165 32.8333 16.8332 32.4667 16.6832C30.4167 15.7998 27.8667 16.4665 26.5333 18.2498C26.3 18.5665 25.85 18.7332 25.5333 18.7498C25.1333 18.7498 24.7666 18.5665 24.5333 18.2498C23.5833 16.9832 22.1333 16.2665 20.5666 16.2665C17.85 16.2665 15.6333 18.4998 15.6333 21.2498C15.6333 25.5832 18.1167 28.6665 20.2167 30.5165C20.5167 30.7832 20.6667 31.1665 20.6333 31.5665C20.6 31.9665 20.3833 32.3165 20.0333 32.5331C19.85 32.6331 19.7 32.6998 19.6166 32.7165C19.1833 32.8498 18.7 32.9165 18.2 32.9165ZM11.6 6.4165C7.7333 6.4165 4.58331 9.58315 4.58331 13.4832C4.58331 22.1998 11.8333 27.5665 16 29.6332C14.4167 27.5165 13.1166 24.7165 13.1166 21.2331C13.1166 17.0998 16.45 13.7498 20.55 13.7498C22.4166 13.7498 24.1666 14.4332 25.5166 15.6499C27.2 14.1499 29.6 13.4665 31.8333 13.8831C31.8333 13.7498 31.8333 13.6165 31.8333 13.4998C31.8333 9.59984 28.6833 6.43314 24.8167 6.43314C22.6 6.43314 20.55 7.46647 19.2 9.24981C18.9666 9.56647 18.6 9.74984 18.2 9.74984C17.8 9.74984 17.4333 9.56647 17.2 9.24981C15.8833 7.44981 13.8333 6.4165 11.6 6.4165Z" fill="#D8B648"/>
<path d="M25.5336 36.0833C25.1502 36.0833 24.7502 36.0333 24.4336 35.9166C23.0002 35.4333 20.6836 34.25 18.5669 32.3667C16.1002 30.1834 13.1502 26.4833 13.1502 21.2333C13.1502 17.1 16.4836 13.75 20.5836 13.75C22.4502 13.75 24.2002 14.4334 25.5502 15.65C27.6502 13.7667 30.8502 13.2333 33.4835 14.3833C36.1835 15.5833 37.9336 18.2833 37.9336 21.25C37.9336 29.15 31.0002 34.45 26.6336 35.9333C26.3002 36.0333 25.9169 36.0833 25.5336 36.0833ZM20.5669 16.25C17.8502 16.25 15.6336 18.4833 15.6336 21.2333C15.6336 25.5666 18.1169 28.65 20.2169 30.5C22.0669 32.1333 24.0169 33.15 25.2336 33.55C25.3669 33.6 25.6836 33.6 25.8002 33.55C28.3002 32.7 35.4169 28.6166 35.4169 21.2333C35.4169 19.25 34.2502 17.45 32.4669 16.6667C30.4502 15.7833 27.8669 16.45 26.5336 18.2333C26.3002 18.55 25.8502 18.7167 25.5336 18.7333C25.1336 18.7333 24.7669 18.55 24.5335 18.2333C23.5835 16.9667 22.1335 16.25 20.5669 16.25Z" fill="#D8B648"/>
</svg>
